HIERARCHY
ROOT Hips
{
	OFFSET 0.000000 0.000000 0.000000
	CHANNELS 6 Xposition Yposition Zposition Xrotation Yrotation Zrotation
	JOINT LeftUpLeg_virtual
	{
		OFFSET 0.000000 0.000000 0.000000
		CHANNELS 3 Xrotation Yrotation Zrotation
		JOINT LeftUpLeg
		{
			OFFSET 10.205400 -3.823500 0.155100
			CHANNELS 3 Xrotation Yrotation Zrotation
			JOINT LeftLeg
			{
				OFFSET 0.708757 -12.982077 0.567790
				CHANNELS 3 Xrotation Yrotation Zrotation
				JOINT LeftFoot
				{
					OFFSET -0.708756 -10.717838 -2.184338
					CHANNELS 3 Xrotation Yrotation Zrotation
					JOINT LeftToeBase
					{
						OFFSET 0.108149 -7.191104 7.560241
						CHANNELS 3 Xrotation Yrotation Zrotation
						JOINT LeftToe_End
						{
							OFFSET 0.070230 0.081724 4.490308
							CHANNELS 3 Xrotation Yrotation Zrotation
							End Site
							{
								OFFSET 0 0 0
							}
						}
					}
				}
			}
		}
	}
	JOINT RightUpLeg_virtual
	{
		OFFSET 0.000000 0.000000 0.000000
		CHANNELS 3 Xrotation Yrotation Zrotation
		JOINT RightUpLeg
		{
			OFFSET -10.205400 -3.823500 0.005500
			CHANNELS 3 Xrotation Yrotation Zrotation
			JOINT RightLeg
			{
				OFFSET -0.708756 -12.982134 0.610632
				CHANNELS 3 Xrotation Yrotation Zrotation
				JOINT RightFoot
				{
					OFFSET 0.708754 -10.717769 -1.945823
					CHANNELS 3 Xrotation Yrotation Zrotation
					JOINT RightToeBase
					{
						OFFSET -0.108140 -7.191069 7.372968
						CHANNELS 3 Xrotation Yrotation Zrotation
						JOINT RightToe_End
						{
							OFFSET -0.070227 0.081735 4.479403
							CHANNELS 3 Xrotation Yrotation Zrotation
							End Site
							{
								OFFSET 0 0 0
							}
						}
					}
				}
			}
		}
	}
	JOINT Spine_virtual
	{
		OFFSET 0.000000 0.000000 0.000000
		CHANNELS 3 Xrotation Yrotation Zrotation
		JOINT Spine
		{
			OFFSET 0.000000 6.876099 0.125700
			CHANNELS 3 Xrotation Yrotation Zrotation
			JOINT Spine1
			{
				OFFSET 0.000000 5.730043 0.104720
				CHANNELS 3 Xrotation Yrotation Zrotation
				JOINT Spine1_split
				{
					OFFSET 0.000000 5.730043 0.104720
					CHANNELS 3 Xrotation Yrotation Zrotation
					JOINT Spine2
					{
						OFFSET 0.000000 5.730043 0.104720
						CHANNELS 3 Xrotation Yrotation Zrotation
						JOINT Neck_virtual
						{
							OFFSET 0.000000 0.000000 0.000000
							CHANNELS 3 Xrotation Yrotation Zrotation
							JOINT Neck
							{
								OFFSET 0.000000 10.314075 0.188496
								CHANNELS 3 Xrotation Yrotation Zrotation
								JOINT Head
								{
									OFFSET 0.000000 7.643700 -2.377400
									CHANNELS 3 Xrotation Yrotation Zrotation
									JOINT HeadTop_End
									{
										OFFSET 0.000000 43.788605 -13.619600
										CHANNELS 3 Xrotation Yrotation Zrotation
										End Site
										{
											OFFSET 0 0 0
										}
									}
								}
							}
						}
						JOINT LeftShoulder_virtual
						{
							OFFSET 0.000000 0.000000 0.000000
							CHANNELS 3 Xrotation Yrotation Zrotation
							JOINT LeftShoulder
							{
								OFFSET 2.196100 4.412489 0.087492
								CHANNELS 3 Xrotation Yrotation Zrotation
								JOINT LeftShoulder_split
								{
									OFFSET 2.196100 4.412489 0.087492
									CHANNELS 3 Xrotation Yrotation Zrotation
									JOINT LeftArm
									{
										OFFSET 8.771219 -2.981674 -0.026999
										CHANNELS 3 Xrotation Yrotation Zrotation
										JOINT LeftForeArm
										{
											OFFSET 8.512804 0.000000 -0.000000
											CHANNELS 3 Xrotation Yrotation Zrotation
											JOINT LeftHand
											{
												OFFSET 18.484802 0.000000 -0.000000
												CHANNELS 3 Xrotation Yrotation Zrotation
												End Site
												{
													OFFSET 0 0 0
												}
											}
										}
									}
								}
							}
						}
						JOINT RightShoulder_virtual
						{
							OFFSET 0.000000 0.000000 0.000000
							CHANNELS 3 Xrotation Yrotation Zrotation
							JOINT RightShoulder
							{
								OFFSET -2.196100 4.412496 0.070690
								CHANNELS 3 Xrotation Yrotation Zrotation
								JOINT RightShoulder_split
								{
									OFFSET -2.196100 4.412496 0.070690
									CHANNELS 3 Xrotation Yrotation Zrotation
									JOINT RightArm
									{
										OFFSET -8.771282 -2.981682 -0.094208
										CHANNELS 3 Xrotation Yrotation Zrotation
										JOINT RightForeArm
										{
											OFFSET -8.494598 0.000000 0.000000
											CHANNELS 3 Xrotation Yrotation Zrotation
											JOINT RightHand
											{
												OFFSET -18.483803 0.000000 0.000001
												CHANNELS 3 Xrotation Yrotation Zrotation
												End Site
												{
													OFFSET 0 0 0
												}
											}
										}
									}
								}
							}
						}
					}
				}
			}
		}
	}
}
MOTION
Frames: 7
Frame Time: 0.03333333
1.705924 5.756790 -4.289331 0.000000 0.000000 0.000000 83.555965 5.820011 -4.960044 -5.169856 9.142206 21.170658 31.538265 20.070328 2.367944 30.846968 28.976326 -17.305112 1.007426 3.218982 17.263486 0.000000 0.000000 0.000000 81.805128 -0.987914 -3.346450 -1.307980 -6.775661 -19.782873 0.895733 -6.923722 4.585520 37.199334 -18.058868 23.881936 20.734699 -4.210325 -13.215202 0.000000 0.000000 0.000000 88.070522 3.334523 -4.830584 2.932322 0.138022 -1.859979 1.570146 0.304875 0.047596 0.379109 -2.372597 0.963352 0.000000 0.000000 0.000000 0.440542 0.173303 -0.438290 -4.764439 -13.152689 5.873924 -17.985809 -56.812622 -18.510178 0.000000 0.000000 0.000000 1.060842 0.251438 -0.406290 3.200638 -18.260711 -3.064146 -1.021818 -0.803908 -1.814612 25.321412 -22.632889 -55.035345 0.552203 -26.901289 -1.036640 0.000000 0.000000 0.000000 1.068495 0.423176 -0.253863 -0.236093 11.869470 11.818650 6.221961 6.607952 -1.542966 8.718239 -8.436197 55.429236 0.429861 27.673474 2.334231 0.000000 0.000000 0.000000 
1.705014 5.756643 -4.293977 0.000000 0.000000 0.000000 83.553267 5.822483 -4.962103 -5.188107 9.135153 21.167050 31.548449 20.069201 2.356085 30.860352 28.987138 -17.296272 0.993293 3.218771 17.264531 0.000000 0.000000 0.000000 81.803933 -0.981039 -3.356103 -1.309878 -6.761292 -19.788115 0.906126 -6.916158 4.579851 37.195892 -18.047445 23.898589 20.732110 -4.208776 -13.220566 0.000000 0.000000 0.000000 88.065317 3.333443 -4.825022 2.931949 0.140193 -1.854611 1.566740 0.303922 0.048688 0.378607 -2.361910 0.964104 0.000000 0.000000 0.000000 0.439686 0.173308 -0.439822 -4.770698 -13.153895 5.873676 -17.985280 -56.800215 -18.512507 0.000000 0.000000 0.000000 1.065575 0.249462 -0.403395 3.208354 -18.279186 -3.037818 -1.028568 -0.799664 -1.821055 25.312456 -22.619572 -55.038668 0.547280 -26.880824 -1.028378 0.000000 0.000000 0.000000 1.069030 0.421561 -0.253274 -0.236566 11.863242 11.818508 6.238121 6.635269 -1.540098 8.713811 -8.437491 55.410060 0.443169 27.679412 2.330308 0.000000 0.000000 0.000000 
1.704239 5.757048 -4.301716 0.000000 0.000000 0.000000 83.549251 5.831920 -4.976124 -5.227101 9.131338 21.171502 31.571484 20.070721 2.342251 30.890296 28.994331 -17.296327 0.972217 3.217262 17.266068 0.000000 0.000000 0.000000 81.798776 -0.970077 -3.373065 -1.297522 -6.736475 -19.787328 0.909412 -6.908520 4.565688 37.193416 -18.033043 23.922234 20.760170 -4.205818 -13.203183 0.000000 0.000000 0.000000 88.056595 3.332082 -4.817486 2.931456 0.146056 -1.848742 1.565659 0.304186 0.050779 0.378561 -2.346831 0.962818 0.000000 0.000000 0.000000 0.436485 0.173943 -0.439824 -4.776296 -13.153069 5.867722 -17.965551 -56.791595 -18.508380 0.000000 0.000000 0.000000 1.071641 0.248578 -0.399727 3.218748 -18.323364 -3.009853 -1.030535 -0.807731 -1.827881 25.306537 -22.597578 -55.034338 0.526185 -26.835460 -1.037388 0.000000 0.000000 0.000000 1.072332 0.421271 -0.252018 -0.237583 11.851790 11.821961 6.272157 6.670378 -1.542128 8.698861 -8.475799 55.390106 0.459525 27.684034 2.327646 0.000000 0.000000 0.000000 
1.702807 5.757608 -4.310575 0.000000 0.000000 0.000000 83.545624 5.844724 -5.001532 -5.291200 9.131583 21.187587 31.608814 20.072925 2.323036 30.932844 28.995505 -17.308148 0.946809 3.214643 17.268702 0.000000 0.000000 0.000000 81.792690 -0.954813 -3.399383 -1.276006 -6.699154 -19.780638 0.911530 -6.898269 4.545012 37.193385 -18.016038 23.955167 20.814404 -4.201399 -13.167934 0.000000 0.000000 0.000000 88.043993 3.326666 -4.810816 2.932716 0.154641 -1.841951 1.566560 0.305448 0.053486 0.379270 -2.341314 0.964008 0.000000 0.000000 0.000000 0.431132 0.174958 -0.438914 -4.780157 -13.151881 5.858444 -17.925345 -56.786384 -18.495263 0.000000 0.000000 0.000000 1.077893 0.248529 -0.395361 3.231539 -18.387984 -2.981360 -1.027646 -0.823744 -1.839825 25.302620 -22.564288 -55.024769 0.494728 -26.793531 -1.059837 0.000000 0.000000 0.000000 1.076822 0.422333 -0.250589 -0.240085 11.835562 11.829013 6.315587 6.711695 -1.543483 8.669327 -8.550520 55.367815 0.475192 27.676611 2.324537 0.000000 0.000000 0.000000 
1.701226 5.758106 -4.320662 0.000000 0.000000 0.000000 83.540501 5.859167 -5.034783 -5.378236 9.131434 21.211593 31.664740 20.074392 2.297587 30.981772 28.993269 -17.332080 0.919153 3.211581 17.271906 0.000000 0.000000 0.000000 81.785682 -0.935381 -3.433685 -1.254768 -6.650065 -19.772056 0.919111 -6.879434 4.520173 37.198365 -17.988379 24.005864 20.872857 -4.193984 -13.123099 0.000000 0.000000 0.000000 88.030579 3.316362 -4.807066 2.935600 0.164659 -1.833109 1.569230 0.307221 0.055521 0.382726 -2.341300 0.962513 0.000000 0.000000 0.000000 0.424637 0.175953 -0.437914 -4.782181 -13.149366 5.847345 -17.873476 -56.783153 -18.477140 0.000000 0.000000 0.000000 1.082662 0.248963 -0.390379 3.245050 -18.466979 -2.954813 -1.013990 -0.832866 -1.856978 25.294460 -22.527287 -55.014319 0.461981 -26.771528 -1.087468 0.000000 0.000000 0.000000 1.081362 0.423674 -0.250454 -0.242720 11.814345 11.838191 6.352948 6.742907 -1.547920 8.631555 -8.649089 55.339023 0.488560 27.665403 2.319735 0.000000 0.000000 0.000000 
1.698877 5.758638 -4.332046 0.000000 0.000000 0.000000 83.535652 5.875270 -5.072541 -5.479102 9.130575 21.238483 31.737833 20.076955 2.265012 31.024553 28.995359 -17.362206 0.891024 3.208523 17.274721 0.000000 0.000000 0.000000 81.779071 -0.912890 -3.471881 -1.239734 -6.594348 -19.764850 0.934946 -6.848871 4.492807 37.210727 -17.946923 24.078498 20.915632 -4.182503 -13.076547 0.000000 0.000000 0.000000 88.016960 3.304060 -4.807762 2.938389 0.174178 -1.821194 1.572722 0.308732 0.055895 0.388915 -2.347702 0.962341 0.000000 0.000000 0.000000 0.417010 0.176503 -0.437676 -4.782159 -13.146149 5.835677 -17.812005 -56.779526 -18.453404 0.000000 0.000000 0.000000 1.085723 0.249799 -0.385255 3.258780 -18.557062 -2.934114 -0.993801 -0.830231 -1.878452 25.287111 -22.494198 -54.998237 0.436246 -26.774343 -1.110013 0.000000 0.000000 0.000000 1.086102 0.424752 -0.252296 -0.243500 11.788279 11.849791 6.389382 6.759242 -1.554159 8.591712 -8.755113 55.300224 0.498999 27.660553 2.312425 0.000000 0.000000 0.000000 
1.696188 5.759230 -4.345367 0.000000 0.000000 0.000000 83.533412 5.894047 -5.111241 -5.583479 9.129527 21.256792 31.825707 20.084120 2.225858 31.054507 29.008442 -17.396768 0.860043 3.205178 17.275941 0.000000 0.000000 0.000000 81.771605 -0.886945 -3.511010 -1.232150 -6.540634 -19.757825 0.955365 -6.808700 4.462697 37.222516 -17.897466 24.168250 20.943725 -4.168335 -13.031501 0.000000 0.000000 0.000000 88.006065 3.289641 -4.810916 2.939451 0.181679 -1.805776 1.576759 0.309943 0.054713 0.395546 -2.348889 0.971088 0.000000 0.000000 0.000000 0.407765 0.176328 -0.438787 -4.780344 -13.141255 5.823955 -17.742386 -56.770780 -18.425567 0.000000 0.000000 0.000000 1.089049 0.250467 -0.381359 3.272225 -18.653182 -2.919242 -0.975789 -0.814245 -1.901326 25.288854 -22.470974 -54.974137 0.422777 -26.790696 -1.120389 0.000000 0.000000 0.000000 1.091099 0.425816 -0.256116 -0.242187 11.762441 11.859826 6.426458 6.760317 -1.565470 8.554113 -8.853363 55.254205 0.508038 27.665797 2.302175 0.000000 0.000000 0.000000 
